HIERARCHY
ROOT Hips
{
	OFFSET	0.00	0.00	0.00
	CHANNELS 6 Xposition Yposition Zposition Zrotation Xrotation Yrotation
	JOINT LeftUpperLeg
	{
		OFFSET	 0.100000	-0.066564	-0.000554
		CHANNELS 3 Zrotation Xrotation Yrotation
		JOINT LeftLowerLeg
		{
			OFFSET	 0.002447	-0.463436	-0.005172
			CHANNELS 3 Zrotation Xrotation Yrotation
			JOINT LeftFoot
			{
				OFFSET	-0.002447	-0.420480	-0.020576
				CHANNELS 3 Zrotation Xrotation Yrotation
				JOINT LeftToes
				{
					OFFSET	 0.003734	-0.104922	 0.126407
					CHANNELS 3 Zrotation Xrotation Yrotation
					End Site
					{
						OFFSET	 0.000000	 0.000000	 0.059955
					}
				}
			}
		}
	}
	JOINT RightUpperLeg
	{
		OFFSET	-0.100000	-0.066564	-0.000554
		CHANNELS 3 Zrotation Xrotation Yrotation
		JOINT RightLowerLeg
		{
			OFFSET	-0.002447	-0.463436	-0.005146
			CHANNELS 3 Zrotation Xrotation Yrotation
			JOINT RightFoot
			{
				OFFSET	 0.002447	-0.420479	-0.020602
				CHANNELS 3 Zrotation Xrotation Yrotation
				JOINT RightToes
				{
					OFFSET	-0.003734	-0.104922	 0.126407
					CHANNELS 3 Zrotation Xrotation Yrotation
					End Site
					{
						OFFSET	-0.000000	 0.000000	 0.059955
					}
				}
			}
		}
	}
	JOINT Spine
	{
		OFFSET	 0.000000	 0.099235	-0.012273
		CHANNELS 3 Zrotation Xrotation Yrotation
		JOINT Chest
		{
			OFFSET	-0.000001	 0.116455	-0.014223
			CHANNELS 3 Zrotation Xrotation Yrotation
			JOINT UpperChest
			{
				OFFSET	 0.000001	 0.133602	-0.016265
				CHANNELS 3 Zrotation Xrotation Yrotation
				JOINT LeftShoulder
				{
					OFFSET	 0.061058	 0.091105	 0.007056
					CHANNELS 3 Zrotation Xrotation Yrotation
					JOINT LeftUpperArm
					{
						OFFSET	 0.133942	-0.002659	-0.026009
						CHANNELS 3 Zrotation Xrotation Yrotation
						JOINT LeftLowerArm
						{
							OFFSET	 0.274047	 0.000000	 0.000000
							CHANNELS 3 Zrotation Xrotation Yrotation
							JOINT LeftHand
							{
								OFFSET	 0.276145	 0.000000	 0.000000
								CHANNELS 3 Zrotation Xrotation Yrotation
								End Site
								{
									OFFSET	 0.165687	 0.000000	 0.000000
								}
							}
						}
					}
				}
				JOINT Neck
				{
					OFFSET	 0.000000	 0.150325	 0.007929
					CHANNELS 3 Zrotation Xrotation Yrotation
					JOINT Head
					{
						OFFSET	 0.000000	 0.103218	 0.031424
						CHANNELS 3 Zrotation Xrotation Yrotation
						End Site
						{
							OFFSET	 0.000000	 0.061931	 0.018855
						}
					}
				}
				JOINT RightShoulder
				{
					OFFSET	-0.061057	 0.091105	 0.007056
					CHANNELS 3 Zrotation Xrotation Yrotation
					JOINT RightUpperArm
					{
						OFFSET	-0.133943	-0.002660	-0.026009
						CHANNELS 3 Zrotation Xrotation Yrotation
						JOINT RightLowerArm
						{
							OFFSET	-0.274047	 0.000000	 0.000000
							CHANNELS 3 Zrotation Xrotation Yrotation
							JOINT RightHand
							{
								OFFSET	-0.276145	 0.000000	 0.000000
								CHANNELS 3 Zrotation Xrotation Yrotation
								End Site
								{
									OFFSET	-0.165687	 0.000000	 0.000000
								}
							}
						}
					}
				}
			}
		}
	}
}
MOTION
Frames:    5
Frame Time: 0.03333334
-0.519270	 1.004390	 0.207740	 0.217752	 2.285534	 12.734900	 13.546180	-22.491950	 15.349050	-0.975998	 49.377970	 0.448062	 9.134550	-6.483497	 17.467070	 0.000419	-5.251203	 2.069423	 5.308009	 20.690670	-27.441230	 0.000387	 0.080813	 0.000017	 24.788430	-22.721860	 3.723771	-0.000003	 0.809486	 2.869164	 3.494693	 0.700914	-1.996992	-0.000000	 0.000000	 0.000000	 7.028799	 1.281891	-4.042449	 0.173369	-4.064829	-9.968787	-79.965620	-24.930040	 7.384424	-33.541830	 13.949710	-59.685790	 11.631880	 8.842621	-15.967800	-2.042545	 1.746863	-12.510430	-2.282725	 1.486496	-12.418770	 1.277660	-1.367301	-10.139800	 69.204700	-8.931477	 17.110320	 8.051666	 13.856280	 80.298360	 18.177510	-8.671989	 26.393520
-0.519270	 1.004390	 0.207740	 0.217752	 2.285534	 12.734900	 13.546180	-22.491950	 15.349050	-0.975998	 49.377970	 0.448062	 9.134550	-6.483497	 17.467070	 0.000419	-5.251203	 2.069423	 5.308009	 20.690670	-27.441230	 0.000387	 0.080813	 0.000017	 24.788430	-22.721860	 3.723771	-0.000003	 0.809486	 2.869164	 3.494693	 0.700914	-1.996992	-0.000000	 0.000000	 0.000000	 7.028799	 1.281891	-4.042449	 0.173369	-4.064829	-9.968787	-79.965620	-24.930040	 7.384424	-33.541830	 13.949710	-59.685790	 11.631880	 8.842621	-15.967800	-2.042545	 1.746863	-12.510430	-2.282725	 1.486496	-12.418770	 1.277660	-1.367301	-10.139800	 69.204700	-8.931477	 17.110320	 8.051666	 13.856280	 80.298360	 18.177510	-8.671989	 26.393520
-0.519270	 1.004390	 0.207740	 0.217752	 2.285534	 12.734900	 13.546180	-22.491950	 15.349050	-0.975998	 49.377970	 0.448062	 9.134550	-6.483497	 17.467070	 0.000419	-5.251203	 2.069423	 5.308009	 20.690670	-27.441230	 0.000387	 0.080813	 0.000017	 24.788430	-22.721860	 3.723771	-0.000003	 0.809486	 2.869164	 3.494693	 0.700914	-1.996992	-0.000000	 0.000000	 0.000000	 7.028799	 1.281891	-4.042449	 0.173369	-4.064829	-9.968787	-79.965620	-24.930040	 7.384424	-33.541830	 13.949710	-59.685790	 11.631880	 8.842621	-15.967800	-2.042545	 1.746863	-12.510430	-2.282725	 1.486496	-12.418770	 1.277660	-1.367301	-10.139800	 69.204700	-8.931477	 17.110320	 8.051666	 13.856280	 80.298360	 18.177510	-8.671989	 26.393520
-0.519270	 1.004390	 0.207740	 0.217752	 2.285534	 12.734900	 13.546180	-22.491950	 15.349050	-0.975998	 49.377970	 0.448062	 9.134550	-6.483497	 17.467070	 0.000419	-5.251203	 2.069423	 5.308009	 20.690670	-27.441230	 0.000387	 0.080813	 0.000017	 24.788430	-22.721860	 3.723771	-0.000003	 0.809486	 2.869164	 3.494693	 0.700914	-1.996992	-0.000000	 0.000000	 0.000000	 7.028799	 1.281891	-4.042449	 0.173369	-4.064829	-9.968787	-79.965620	-24.930040	 7.384424	-33.541830	 13.949710	-59.685790	 11.631880	 8.842621	-15.967800	-2.042545	 1.746863	-12.510430	-2.282725	 1.486496	-12.418770	 1.277660	-1.367301	-10.139800	 69.204700	-8.931477	 17.110320	 8.051666	 13.856280	 80.298360	 18.177510	-8.671989	 26.393520
-0.419370	 1.010950	 0.096600	 0.734465	 5.556264	 9.180087	 4.071485	-18.579710	 14.086440	-0.054451	 36.316900	 0.017681	-0.485833	-22.548320	 21.004460	-0.000320	 1.018911	-0.000069	-9.536257	 2.268059	-29.420720	-0.103437	 21.756090	 0.039559	 25.424730	-25.568370	 10.971380	 0.000321	 0.571146	 1.929701	 2.181261	 0.363390	-1.667520	-0.000000	 0.000000	 0.000000	 4.378502	 0.662557	-3.353868	 1.186568	-4.019125	-7.962084	-79.627290	-24.611780	 8.460497	-33.006760	 16.766330	-58.579020	 14.418190	 9.717469	-19.027500	 0.357676	-0.065774	-14.601310	 0.656576	 0.528953	-14.621750	 2.228942	-1.701637	-9.556918	 71.153500	-9.444542	 19.920200	 8.304714	 11.933980	 80.025340	 18.384440	-9.357371	 25.899730
